<svg height="512" viewBox="0 0 64 64" width="512" xmlns="http://www.w3.org/2000/svg"><g id="Fill_Outline" data-name="Fill Outline"><g id="Color"><path d="m23 11h17v17h-17z" fill="#93999a"/><path d="m40 13h-13a8 8 0 0 0 8 8h5v7h-17v-17h17z" fill="#656b76"/><path d="m32 15a2 2 0 0 1 2 2v3a0 0 0 0 1 0 0h-4a0 0 0 0 1 0 0v-3a2 2 0 0 1 2-2z" fill="#656b76"/><path d="m34 17v3h-3v-3a2 2 0 0 1 1.5-1.93 1.894 1.894 0 0 1 .91.52 1.955 1.955 0 0 1 .59 1.41z" fill="#464a51"/><path d="m34 17v3h-3v-3a2 2 0 0 1 1.5-1.93 1.894 1.894 0 0 1 .91.52 1.955 1.955 0 0 1 .59 1.41z" fill="#464a51"/><path d="m38 3v4h-4v-4h-4v4h-4v-4h-4v8h20v-8z" fill="#d0d8da"/><path d="m42 9v2h-20v-8h2v2a4 4 0 0 0 4 4z" fill="#93999a"/><path d="m38 3h2v4h-2z" fill="#93999a"/><path d="m30 3h2v4h-2z" fill="#93999a"/><path d="m53 5-4 7h8z" fill="#ef5350"/><path d="m57 12h-8l4-7v1.91a5 5 0 0 0 2.76 4.47z" fill="#e53935"/><path d="m49 12h8v8h-8z" fill="#d0d8da"/><path d="m49 12v8h8v-6h-4a2.006 2.006 0 0 1 -2-2z" fill="#93999a"/><path d="m51 16v4h4v-4h4v8h-12v-8z" fill="#e9f1f2"/><path d="m59 22v2h-12v-8h2v4a2.006 2.006 0 0 0 2 2z" fill="#d0d8da"/><path d="m55 16h2v4h-2z" fill="#d0d8da"/><path d="m49 24h8v22h-8z" fill="#d0d8da"/><path d="m57 26h-6a3 3 0 0 0 3 3h3v17h-8v-22h8z" fill="#93999a"/><path d="m43 13-4 7h8z" fill="#ef5350"/><path d="m47 20h-8l4-7v1.91a5 5 0 0 0 2.76 4.47z" fill="#e53935"/><path d="m39 20h8v16h-8z" fill="#d0d8da"/><path d="m47 20v16h-8v-14h4a2.006 2.006 0 0 0 2-2z" fill="#93999a"/><path d="m45 24v4h-4v-4h-4v11h12v-11z" fill="#e9f1f2"/><path d="m49 34v1h-12v-11h4v4h4v-4h2v8a2.006 2.006 0 0 0 2 2z" fill="#d0d8da"/><path d="m53 31v4h4v-4h4v8h-12v-8z" fill="#e9f1f2"/><path d="m61 37v2h-12v-8h2v4a2.006 2.006 0 0 0 2 2z" fill="#d0d8da"/><path d="m57 31h2v4h-2z" fill="#d0d8da"/><path d="m52 39h7v22h-7z" fill="#d0d8da" transform="matrix(-1 0 0 -1 111 100)"/><path d="m55 44v11a3 3 0 0 0 3 3h1v3h-7v-22h7v2h-1a3 3 0 0 0 -3 3z" fill="#93999a"/><path d="m9 20-4 7h8z" fill="#ef5350"/><path d="m13 27h-8l4-7v1.91a5 5 0 0 0 2.76 4.47z" fill="#e53935"/><path d="m5 27h8v10h-8z" fill="#d0d8da"/><path d="m13 27v10h-8v-8h4a2.006 2.006 0 0 0 2-2z" fill="#93999a"/><path d="m7 31v4h4v-4h4v8h-12v-8z" fill="#e9f1f2"/><path d="m15 37v2h-12v-8h2v4a2.006 2.006 0 0 0 2 2z" fill="#d0d8da"/><path d="m11 31h2v4h-2z" fill="#d0d8da"/><path d="m5 39h7v22h-7z" fill="#d0d8da"/><path d="m9 44v11a3 3 0 0 1 -3 3h-1v3h7v-22h-7v2h1a3 3 0 0 1 3 3z" fill="#93999a"/><path d="m19 12-4 7h8z" fill="#ef5350"/><path d="m23 19h-8l4-7v1.91a5 5 0 0 0 2.76 4.47z" fill="#e53935"/><path d="m15 19h8v16h-8z" fill="#d0d8da"/><path d="m23 19v16h-8v-14h4a2.006 2.006 0 0 0 2-2z" fill="#93999a"/><path d="m21 23v4h-4v-4h-4v12h12v-12z" fill="#e9f1f2"/><path d="m25 29v6h-12v-12h2v4a2.006 2.006 0 0 0 2 2z" fill="#d0d8da"/><path d="m21 23h2v4h-2z" fill="#d0d8da"/><path d="m15 35h34v8h-34z" fill="#d0d8da"/><path d="m49 37v6h-34v-8h3a2.006 2.006 0 0 0 2 2z" fill="#93999a"/><path d="m32.122 23-17.122 12h34z" fill="#ef5350"/><path d="m49 35h-34l17-11.92a10.089 10.089 0 0 0 7.79 9.75z" fill="#e53935"/><path d="m48 39v4h-5v-4h-4v4h-5v-4h-4v4h-5v-4h-4v4h-5v-4h-4v22h40v-22z" fill="#e9f1f2"/><g fill="#d0d8da"><path d="m52 54v7h-40v-22h2v3a12 12 0 0 0 12 12z"/><path d="m21 39h2v4h-2z"/><path d="m30 39h2v4h-2z"/><path d="m39 39h2v4h-2z"/><path d="m48 39h2v4h-2z"/></g><path d="m32 51a4 4 0 0 1 4 4v6a0 0 0 0 1 0 0h-8a0 0 0 0 1 0 0v-6a4 4 0 0 1 4-4z" fill="#656b76"/><path d="m33.5 51.3a4 4 0 0 0 -2.5 3.7v6h5v-6a4 4 0 0 0 -2.5-3.7z" fill="#464a51"/></g><g id="Outline_copy" fill="#323232" data-name="Outline copy"><path d="m32 14a3 3 0 0 0 -3 3v3a1 1 0 0 0 1 1h4a1 1 0 0 0 1-1v-3a3 3 0 0 0 -3-3zm1 5h-2v-2a1 1 0 0 1 2 0z"/><path d="m61 30h-3v-5h1a1 1 0 0 0 0-2h-11v-6h2v3a1 1 0 0 0 1 1h4a1 1 0 0 0 1-1v-3h2v3a1 1 0 0 0 2 0v-4a1 1 0 0 0 -1-1h-1v-3a.993.993 0 0 0 -.132-.5l-4-7a1.04 1.04 0 0 0 -1.736 0l-4 7a.993.993 0 0 0 -.132.5v3h-1a1 1 0 0 0 -1 1v.235l-2.132-3.735a1.04 1.04 0 0 0 -1.736 0l-1.132 1.985v-2.485h1a1 1 0 0 0 1-1v-8a1 1 0 0 0 -1-1h-4a1 1 0 0 0 -1 1v4a1 1 0 0 0 2 0v-3h2v6h-18v-6h2v3a1 1 0 0 0 1 1h4a1 1 0 0 0 1-1v-3h2v3a1 1 0 0 0 2 0v-4a1 1 0 0 0 -1-1h-4a1 1 0 0 0 -1 1v3h-2v-3a1 1 0 0 0 -1-1h-4a1 1 0 0 0 -1 1v8a1 1 0 0 0 1 1v3.235l-2.132-3.735a1.04 1.04 0 0 0 -1.736 0l-4 7a.993.993 0 0 0 -.132.5v3h-1a1 1 0 0 0 -1 1v.235l-2.132-3.735a1.04 1.04 0 0 0 -1.736 0l-4 7a.993.993 0 0 0 -.132.5v3h-1a1 1 0 0 0 -1 1v8a1 1 0 0 0 1 1h1v17a1 1 0 0 0 2 0v-1h1a1 1 0 0 0 0-2h-1v-3h1a1 1 0 0 0 0-2h-1v-3h1a1 1 0 0 0 0-2h-1v-4h5v20h-6a1 1 0 0 0 0 2h43.122a1 1 0 0 0 0-2h-11.122v-5a5 5 0 0 0 -10 0v5h-14v-20h2a1 1 0 0 0 1-1v-3h20a1 1 0 0 0 0-2h-17.831l13.949-9.776 13.75 9.776h-5.868a1 1 0 0 0 0 2h8v2a1 1 0 0 0 -1 1v3h-3v-3a1 1 0 0 0 -1-1h-4a1 1 0 0 0 -1 1v3h-3v-3a1 1 0 0 0 -1-1h-4a1 1 0 0 0 -1 1v3h-3v-3a1 1 0 0 0 -1-1h-4a1 1 0 0 0 -1 1v3h-4a1 1 0 0 0 0 2h5a1 1 0 0 0 1-1v-3h2v3a1 1 0 0 0 1 1h5a1 1 0 0 0 1-1v-3h2v3a1 1 0 0 0 1 1h5a1 1 0 0 0 1-1v-3h2v3a1 1 0 0 0 1 1h5a1 1 0 0 0 1-1v-3h2v21a1 1 0 0 0 1 1h7a1 1 0 0 0 1-1v-18a1 1 0 0 0 -2 0v1h-1a1 1 0 0 0 0 2h1v3h-1a1 1 0 0 0 0 2h1v3h-1a1 1 0 0 0 0 2h1v4h-5v-20h8a1 1 0 0 0 1-1v-8a1 1 0 0 0 -1-1zm-8-22.984 2.277 3.984h-4.554zm-3 5.984h6v2h-1a1 1 0 0 0 -1 1v3h-2v-3a1 1 0 0 0 -1-1h-1zm-21 42a3 3 0 0 1 6 0v5h-6zm27-21h-2v-5a1 1 0 0 0 -2 0v1h-2v-5h6zm-16-9v2.374l-2-1.422v-.952zm8 0v8.062l-5.713-4.062h2.713a1 1 0 0 0 1-1v-3zm-3-2a1 1 0 0 0 -1 1v3h-2v-3a1 1 0 0 0 -1-1h-1v-2h6v2zm-2-7.984 2.277 3.984h-4.554zm-24-1 2.277 3.984h-4.554zm-3 5.984h6v2h-1a1 1 0 0 0 -1 1v3h-2v-3a1 1 0 0 0 -1-1h-1zm-2 4h2v3a1 1 0 0 0 1 1h4a1 1 0 0 0 1-1v-3h2v3.471l-8 5.607v-2.078a1 1 0 0 0 -1-1h-1zm-5-1.984 2.277 3.984h-4.554zm-3 5.984h6v2h-1a1 1 0 0 0 -1 1v3h-2v-3a1 1 0 0 0 -1-1h-1zm8 10h-10v-6h2v3a1 1 0 0 0 1 1h4a1 1 0 0 0 1-1v-3h2zm17.548-15.819-5.548 3.889v-3.07a1 1 0 0 0 -1-1h-1v-10h15v5.985l-.868 1.515a.993.993 0 0 0 -.132.5v3h-1a1 1 0 0 0 -1 1v.53l-3.3-2.345a1 1 0 0 0 -1.152-.004zm28.452 15.819h-10v-6h2v3a1 1 0 0 0 1 1h4a1 1 0 0 0 1-1v-3h2z"/><path d="m15 49v6a1 1 0 0 0 2 0v-6a1 1 0 0 0 -2 0z"/><path d="m19 49v6a1 1 0 0 0 2 0v-6a1 1 0 0 0 -2 0z"/><path d="m23 49v6a1 1 0 0 0 2 0v-6a1 1 0 0 0 -2 0z"/><path d="m39 49v6a1 1 0 0 0 2 0v-6a1 1 0 0 0 -2 0z"/><path d="m43 49v6a1 1 0 0 0 2 0v-6a1 1 0 0 0 -2 0z"/><path d="m48 48a1 1 0 0 0 -1 1v6a1 1 0 0 0 2 0v-6a1 1 0 0 0 -1-1z"/><circle cx="30" cy="47" r="1"/><circle cx="34" cy="47" r="1"/><path d="m31 28v2a1 1 0 0 0 2 0v-2a1 1 0 0 0 -2 0z"/><path d="m36 29a1 1 0 0 0 -1 1v1a1 1 0 0 0 2 0v-1a1 1 0 0 0 -1-1z"/><path d="m27 30v1a1 1 0 0 0 2 0v-1a1 1 0 0 0 -2 0z"/></g></g></svg>